<?xml version="1.0" encoding="utf-8"?>
<!-- Generator: Adobe Illustrator 24.2.0, SVG Export Plug-In . SVG Version: 6.00 Build 0)  -->
<svg version="1.1" id="Capa_1" xmlns="http://www.w3.org/2000/svg" xmlns:xlink="http://www.w3.org/1999/xlink" x="0px" y="0px"
	 viewBox="0 0 680.3 382.7" style="enable-background:new 0 0 680.3 382.7;" xml:space="preserve">
<style type="text/css">
	.st0{opacity:0.2;fill-rule:evenodd;clip-rule:evenodd;fill:#264EF8;}
	.st1{fill-rule:evenodd;clip-rule:evenodd;fill:url(#SVGID_1_);}
	.st2{fill-rule:evenodd;clip-rule:evenodd;fill:url(#SVGID_2_);}
	.st3{fill:url(#SVGID_3_);}
	.st4{fill:#FFFFFF;}
	.st5{fill-rule:evenodd;clip-rule:evenodd;fill:#0E1A29;}
	.st6{fill:#0E1A29;}
	.st7{fill:#264EF8;}
	.st8{fill-rule:evenodd;clip-rule:evenodd;}
	.st9{opacity:0.9;}
	.st10{fill:url(#SVGID_4_);}
	.st11{fill:url(#SVGID_5_);}
	.st12{fill:url(#SVGID_6_);}
	.st13{fill:url(#SVGID_7_);}
	.st14{fill:url(#SVGID_8_);}
	.st15{fill:url(#SVGID_9_);}
	.st16{fill:url(#SVGID_10_);}
	.st17{fill:url(#SVGID_11_);}
	.st18{fill:url(#SVGID_12_);}
	.st19{fill:url(#SVGID_13_);}
	.st20{fill:url(#SVGID_14_);}
	.st21{fill:url(#SVGID_15_);}
	.st22{fill:#101216;}
	.st23{fill-rule:evenodd;clip-rule:evenodd;fill:#77004D;}
	.st24{fill:#77004D;}
	.st25{opacity:0.9;fill:#101216;}
	.st26{fill-rule:evenodd;clip-rule:evenodd;fill:#0225BF;}
	.st27{fill-rule:evenodd;clip-rule:evenodd;fill:url(#SVGID_16_);}
	.st28{fill-rule:evenodd;clip-rule:evenodd;fill:#03B4F2;}
	.st29{fill-rule:evenodd;clip-rule:evenodd;fill:#264EF8;}
	.st30{clip-path:url(#SVGID_18_);fill-rule:evenodd;clip-rule:evenodd;fill:#FFFFFF;}
	.st31{clip-path:url(#SVGID_18_);fill-rule:evenodd;clip-rule:evenodd;}
	.st32{fill-rule:evenodd;clip-rule:evenodd;fill:url(#SVGID_19_);}
	.st33{clip-path:url(#SVGID_21_);}
	.st34{fill-rule:evenodd;clip-rule:evenodd;fill:url(#SVGID_22_);}
	.st35{opacity:0.4;}
	.st36{clip-path:url(#SVGID_24_);}
	.st37{fill:#009FE3;}
	.st38{opacity:0.5;clip-path:url(#SVGID_21_);fill:#030047;}
	.st39{clip-path:url(#SVGID_26_);}
	.st40{fill-rule:evenodd;clip-rule:evenodd;fill:url(#SVGID_27_);}
	.st41{clip-path:url(#SVGID_29_);}
	.st42{opacity:0.5;clip-path:url(#SVGID_26_);fill:#030047;}
</style>
<g>
	<g>
		<path d="M147.2,110.1c0.6,0.7,1.7,0.9,2.5,0.4l24.8-15.9c1-0.6,1.2-1.9,0.6-2.8l-10.1-13.8c-0.7-0.9-2-1.1-2.9-0.3l-23,19.9
			c-0.8,0.7-0.9,1.9-0.2,2.7L147.2,110.1z"/>
		<path d="M160.2,110.8c-29.5,0-53.4,23.6-53.4,52.7c0,6.8,1.3,13.3,3.7,19.3l-5-4.5l-1.1,1.3v-65.3c0-1.1-0.9-2-2-2H78
			c-1.1,0-2,0.9-2,2v49.9l-31.6-50.9c-0.4-0.6-1-0.9-1.7-0.9H17.5c-1.1,0-2,0.9-2,2v66.3c0-0.3-0.1-0.5-0.1-0.8
			c-1,5.6-1.9,11.1-2.9,16.7l-0.1,0l0,0.2c-0.1,0.4-0.1,0.8-0.2,1.1l0.2-0.2l3.1-2.5l2.1-1.7l5.5-4.5l1.3,4l16.4-19.3L58.8,195
			c2.1-0.5,4.1-0.1,5.6,1.1c0.8,0.6,1.4,1.4,1.7,2.2c0,0.1,0.1,0.2,0.1,0.3c0.2,0.5,0.3,1,0.4,1.5l18.7,11.3l-6-5.5l0-0.1l0.8-1.6
			l5-10.3l3.3,5.6l15.9-18.7l1.1-1.3l5.9,5.3l16.5,14.8l4.8-3.5l7.1,6.4l5.1-0.5l0.1,0.1l18,13.2l1.1,0.8l4.2,3.1l3.7,2.7
			c0.1,0,0.2,0.1,0.4,0.1c-0.7-0.8-1.4-1.6-2.2-2.5c0.1,0,0.2,0,0.3,0.1c-0.2-0.2-0.4-0.3-0.7-0.5c-0.9-1.1-1.9-2.2-2.8-3.3
			c26.3-3.2,46.7-25.4,46.7-52.2C213.6,134.4,189.7,110.8,160.2,110.8z M160.2,187.6c-13.5,0-24.4-10.8-24.4-24.1
			c0-13.3,10.9-24.1,24.4-24.1c13.5,0,24.4,10.8,24.4,24.1C184.6,176.8,173.7,187.6,160.2,187.6z"/>
		<path d="M315,112.3h-25.6c-0.5,0-1,0.2-1.4,0.5c-9.2,9.2-21.6,43.1-21.6,43.1S254.2,122,245,112.8c-0.4-0.4-0.9-0.5-1.4-0.5H218
			c-1.1,0-2,0.9-2,2v96.9c0,1.1,0.9,2,2,2h24.4c1.1,0,2-0.9,2-2v-49l7.5,31.6c0.2,0.9,1,1.5,1.9,1.5h25.5c0.9,0,1.7-0.6,1.9-1.5
			l7.5-31.6v49c0,1.1,0.9,2,2,2H315c1.1,0,2-0.9,2-2v-96.9C317,113.2,316.1,112.3,315,112.3z"/>
		<path d="M383.8,113.6c-0.3-0.8-1-1.3-1.8-1.3h-24.8c-0.8,0-1.6,0.5-1.8,1.3l-35.7,96.3c-0.1,0.2-0.1,0.5-0.1,0.7v0.6
			c0,1.1,0.9,2,2,2h24.8c0.8,0,1.6-0.5,1.8-1.3l5.4-14.5h32.2l5.4,14.5c0.3,0.8,1,1.3,1.8,1.3h24.8c1.1,0,2-0.9,2-2v-0.6
			c0-0.2,0-0.5-0.1-0.7L383.8,113.6z M362.6,172.6l6.9-18.6l7,18.6H362.6z"/>
		<path d="M462.3,112.3H424c-1.1,0-2,0.9-2,2v96.9c0,1.1,0.9,2,2,2h38.3c24.3,0,44-15,44-50.4C506.4,127.3,486.7,112.3,462.3,112.3z
			 M456,189.3h-4.6c-0.5,0-1-0.4-1-1V137c0-0.5,0.4-1,1-1h4.6c12,0,21.8,8,21.8,26.6C477.8,181.3,468,189.3,456,189.3z"/>
		<path d="M563.1,113.6c-0.3-0.8-1-1.3-1.8-1.3h-24.8c-0.8,0-1.6,0.5-1.8,1.3l-35.7,96.3c-0.1,0.2-0.1,0.5-0.1,0.7v0.6
			c0,1.1,0.9,2,2,2h24.8c0.8,0,1.6-0.5,1.8-1.3l5.4-14.5H565l5.4,14.5c0.3,0.8,1,1.3,1.8,1.3H597c1.1,0,2-0.9,2-2v-0.6
			c0-0.2,0-0.5-0.1-0.7L563.1,113.6z M542,172.6l6.9-18.6l7,18.6H542z"/>
		<path d="M642.7,154.3c-12-2.9-13.1-9.7-13.1-11.5c0-1.8,1.3-8.2,11.3-8c7.3,0.1,14.8,1.5,18.4,2.3c1.2,0.2,2.2-0.6,2.4-1.7
			l1.9-19.6c0.1-1.1-0.7-2-1.7-2.1c-3.9-0.4-13.3-1.3-21.9-1.3c-23.6,0-38.5,9.8-38.5,28.9c0,19.1,13.4,29.9,25.4,32.9
			c12,2.9,13.1,9.7,13.1,11.5c0,1.8-1.3,8.2-11.3,8c-7.2-0.1-14.3-1.5-17.8-2.3c-1.2-0.3-2.3,0.6-2.4,1.7l-1.9,19.6
			c-0.1,1.1,0.6,2,1.7,2.1c3.4,0.4,11.3,1.2,21.3,1.2c27.5,0,38.5-9.8,38.5-28.9C668.1,168,654.7,157.2,642.7,154.3z"/>
	</g>
	<g>
		<g>
			<path d="M233.4,258.4v47.1h-13v-47.1h-10.7v-11.2h34.4v11.2H233.4z"/>
			<path d="M262.7,257.1c0-3.4,0.8-5.9,2.4-7.5c1.6-1.6,4.8-2.4,9.5-2.4h10.6c4.7,0,7.9,0.8,9.5,2.4c1.6,1.6,2.4,4.1,2.4,7.5v38.5
				c0,3.4-0.8,5.9-2.4,7.5c-1.6,1.6-4.8,2.4-9.5,2.4h-10.6c-4.7,0-7.9-0.8-9.5-2.4c-1.6-1.6-2.4-4.1-2.4-7.5V257.1z M275.7,292.8
				c0,1,0.5,1.5,1.5,1.5h5.4c1,0,1.5-0.5,1.5-1.5V260c0-1-0.5-1.5-1.5-1.5h-5.4c-1,0-1.5,0.5-1.5,1.5V292.8z"/>
			<path d="M342.5,247.2h13v48.4c0,3.4-0.8,5.9-2.4,7.5c-1.6,1.6-4.8,2.4-9.5,2.4H333c-4.7,0-7.9-0.8-9.5-2.4
				c-1.6-1.6-2.4-4.1-2.4-7.5v-48.4h13v45.5c0,1,0.5,1.5,1.5,1.5h5.4c1,0,1.5-0.5,1.5-1.5V247.2z"/>
			<path d="M392.6,285.3v20.3h-13v-58.3h22.1c4.7,0,7.9,0.8,9.5,2.4c1.6,1.6,2.4,4.1,2.4,7.5v14.1c0,3.4-1.5,5.9-4.4,7.5
				c-0.8,0.4-1.2,0.7-1.2,0.9c0,0.2,0.4,0.5,1.2,0.9c3.2,1.6,4.8,4.1,4.8,7.5v17.5h-13v-18.7c0-1-0.5-1.5-1.5-1.5H392.6z
				 M392.6,258.4V274h6.9c1,0,1.5-0.5,1.5-1.5V260c0-1-0.5-1.5-1.5-1.5H392.6z"/>
			<path d="M439,274.7c-1.6-1.6-2.4-4.3-2.4-7.9v-9.6c0-3.4,0.8-5.9,2.4-7.5c1.6-1.6,4.8-2.4,9.5-2.4h9.8c4.7,0,7.9,0.8,9.5,2.4
				c1.6,1.6,2.4,4.1,2.4,7.5v9.4H458V260c0-1-0.5-1.5-1.5-1.5h-5.8c-1,0-1.5,0.5-1.5,1.5v5.6c0,1.3,2.8,3.4,8.3,6.2
				c5.5,2.9,9.1,5.1,10.7,6.6c1.6,1.6,2.4,4.3,2.4,7.9v9.3c0,3.4-0.8,5.9-2.4,7.5c-1.6,1.6-4.8,2.4-9.5,2.4H448
				c-4.7,0-7.9-0.8-9.5-2.4c-1.6-1.6-2.4-4.1-2.4-7.5v-9.4h12.6v6.6c0,1,0.5,1.5,1.5,1.5h5.8c1,0,1.5-0.5,1.5-1.5v-5.6
				c0-1-2.7-3-8.1-5.8C444.1,278.5,440.6,276.3,439,274.7z"/>
		</g>
		<g class="st9">
			<path d="M233.4,258.4v47.1h-13v-47.1h-10.7v-11.2h34.4v11.2H233.4z"/>
			<path d="M262.7,257.1c0-3.4,0.8-5.9,2.4-7.5c1.6-1.6,4.8-2.4,9.5-2.4h10.6c4.7,0,7.9,0.8,9.5,2.4c1.6,1.6,2.4,4.1,2.4,7.5v38.5
				c0,3.4-0.8,5.9-2.4,7.5c-1.6,1.6-4.8,2.4-9.5,2.4h-10.6c-4.7,0-7.9-0.8-9.5-2.4c-1.6-1.6-2.4-4.1-2.4-7.5V257.1z M275.7,292.8
				c0,1,0.5,1.5,1.5,1.5h5.4c1,0,1.5-0.5,1.5-1.5V260c0-1-0.5-1.5-1.5-1.5h-5.4c-1,0-1.5,0.5-1.5,1.5V292.8z"/>
			<path d="M342.5,247.2h13v48.4c0,3.4-0.8,5.9-2.4,7.5c-1.6,1.6-4.8,2.4-9.5,2.4H333c-4.7,0-7.9-0.8-9.5-2.4
				c-1.6-1.6-2.4-4.1-2.4-7.5v-48.4h13v45.5c0,1,0.5,1.5,1.5,1.5h5.4c1,0,1.5-0.5,1.5-1.5V247.2z"/>
			<path d="M392.6,285.3v20.3h-13v-58.3h22.1c4.7,0,7.9,0.8,9.5,2.4c1.6,1.6,2.4,4.1,2.4,7.5v14.1c0,3.4-1.5,5.9-4.4,7.5
				c-0.8,0.4-1.2,0.7-1.2,0.9c0,0.2,0.4,0.5,1.2,0.9c3.2,1.6,4.8,4.1,4.8,7.5v17.5h-13v-18.7c0-1-0.5-1.5-1.5-1.5H392.6z
				 M392.6,258.4V274h6.9c1,0,1.5-0.5,1.5-1.5V260c0-1-0.5-1.5-1.5-1.5H392.6z"/>
			<path d="M439,274.7c-1.6-1.6-2.4-4.3-2.4-7.9v-9.6c0-3.4,0.8-5.9,2.4-7.5c1.6-1.6,4.8-2.4,9.5-2.4h9.8c4.7,0,7.9,0.8,9.5,2.4
				c1.6,1.6,2.4,4.1,2.4,7.5v9.4H458V260c0-1-0.5-1.5-1.5-1.5h-5.8c-1,0-1.5,0.5-1.5,1.5v5.6c0,1.3,2.8,3.4,8.3,6.2
				c5.5,2.9,9.1,5.1,10.7,6.6c1.6,1.6,2.4,4.3,2.4,7.9v9.3c0,3.4-0.8,5.9-2.4,7.5c-1.6,1.6-4.8,2.4-9.5,2.4H448
				c-4.7,0-7.9-0.8-9.5-2.4c-1.6-1.6-2.4-4.1-2.4-7.5v-9.4h12.6v6.6c0,1,0.5,1.5,1.5,1.5h5.8c1,0,1.5-0.5,1.5-1.5v-5.6
				c0-1-2.7-3-8.1-5.8C444.1,278.5,440.6,276.3,439,274.7z"/>
		</g>
	</g>
</g>
</svg>
