<?xml version="1.0" encoding="utf-8"?>
<!-- Generator: Adobe Illustrator 24.2.0, SVG Export Plug-In . SVG Version: 6.00 Build 0)  -->
<svg version="1.1" id="Capa_1" xmlns="http://www.w3.org/2000/svg" xmlns:xlink="http://www.w3.org/1999/xlink" x="0px" y="0px"
	 viewBox="0 0 301.9 301.8" style="enable-background:new 0 0 301.9 301.8;" xml:space="preserve">
<style type="text/css">
	.st0{opacity:0.2;fill-rule:evenodd;clip-rule:evenodd;fill:#264EF8;}
	.st1{fill-rule:evenodd;clip-rule:evenodd;fill:url(#SVGID_1_);}
	.st2{fill-rule:evenodd;clip-rule:evenodd;fill:url(#SVGID_2_);}
	.st3{fill:url(#SVGID_3_);}
	.st4{fill:#FFFFFF;}
	.st5{fill-rule:evenodd;clip-rule:evenodd;fill:#0E1A29;}
	.st6{fill:#0E1A29;}
	.st7{fill:#264EF8;}
	.st8{fill-rule:evenodd;clip-rule:evenodd;}
	.st9{opacity:0.9;}
	.st10{fill:url(#SVGID_4_);}
	.st11{fill:url(#SVGID_5_);}
	.st12{fill:url(#SVGID_6_);}
	.st13{fill:url(#SVGID_7_);}
	.st14{fill:url(#SVGID_8_);}
	.st15{fill:url(#SVGID_9_);}
	.st16{fill:url(#SVGID_10_);}
	.st17{fill:url(#SVGID_11_);}
	.st18{fill:url(#SVGID_12_);}
	.st19{fill:url(#SVGID_13_);}
	.st20{fill:url(#SVGID_14_);}
	.st21{fill:url(#SVGID_15_);}
	.st22{fill:#101216;}
	.st23{fill-rule:evenodd;clip-rule:evenodd;fill:#77004D;}
	.st24{fill:#77004D;}
	.st25{opacity:0.9;fill:#101216;}
	.st26{fill-rule:evenodd;clip-rule:evenodd;fill:#0225BF;}
	.st27{fill-rule:evenodd;clip-rule:evenodd;fill:url(#SVGID_16_);}
	.st28{fill-rule:evenodd;clip-rule:evenodd;fill:#03B4F2;}
	.st29{fill-rule:evenodd;clip-rule:evenodd;fill:#264EF8;}
	.st30{clip-path:url(#SVGID_18_);fill-rule:evenodd;clip-rule:evenodd;fill:#FFFFFF;}
	.st31{clip-path:url(#SVGID_18_);fill-rule:evenodd;clip-rule:evenodd;}
	.st32{fill-rule:evenodd;clip-rule:evenodd;fill:url(#SVGID_19_);}
	.st33{clip-path:url(#SVGID_21_);}
	.st34{fill-rule:evenodd;clip-rule:evenodd;fill:url(#SVGID_22_);}
	.st35{opacity:0.4;}
	.st36{clip-path:url(#SVGID_24_);}
	.st37{fill:#009FE3;}
	.st38{opacity:0.5;clip-path:url(#SVGID_21_);fill:#030047;}
	.st39{clip-path:url(#SVGID_26_);}
	.st40{fill-rule:evenodd;clip-rule:evenodd;fill:url(#SVGID_27_);}
	.st41{clip-path:url(#SVGID_29_);}
	.st42{opacity:0.5;clip-path:url(#SVGID_26_);fill:#030047;}
</style>
<path d="M270.2,16.9h-66c-2.9,0-5.3,2.4-5.3,5.3v134.9L113.4,19.4c-1-1.6-2.7-2.5-4.5-2.5H40.6c-3,0-5.3,2.4-5.3,5.3v179.2
	c-0.1-0.7-0.2-1.4-0.4-2.1c-2.6,15.1-5.3,30.2-7.9,45.2l-0.1,0.1l0,0.6c-0.2,1-0.4,2-0.5,3.1l0.6-0.5l8.3-6.7l5.8-4.7l15-12.1
	l3.6,10.8L104,183l48.3,57.7c5.6-1.3,11.1-0.3,15.2,2.9c2.1,1.6,3.7,3.7,4.7,6c0.1,0.3,0.2,0.5,0.3,0.8c0.5,1.3,0.9,2.7,1,4
	l50.5,30.5l-16.2-14.9l0.1-0.3l0.3-0.6l1.8-3.8l13.5-27.9l8.9,15l42.9-50.7v-3V22.3C275.5,19.3,273.1,16.9,270.2,16.9z"/>
</svg>
