<?xml version="1.0" encoding="utf-8"?>
<!-- Generator: Adobe Illustrator 24.2.0, SVG Export Plug-In . SVG Version: 6.00 Build 0)  -->
<svg version="1.1" id="Capa_1" xmlns="http://www.w3.org/2000/svg" xmlns:xlink="http://www.w3.org/1999/xlink" x="0px" y="0px"
	 viewBox="0 0 712.6 301.8" style="enable-background:new 0 0 712.6 301.8;" xml:space="preserve">
<style type="text/css">
	.st0{opacity:0.2;fill-rule:evenodd;clip-rule:evenodd;fill:#264EF8;}
	.st1{fill-rule:evenodd;clip-rule:evenodd;fill:url(#SVGID_1_);}
	.st2{fill-rule:evenodd;clip-rule:evenodd;fill:url(#SVGID_2_);}
	.st3{fill:url(#SVGID_3_);}
	.st4{fill:#FFFFFF;}
	.st5{fill-rule:evenodd;clip-rule:evenodd;fill:#0E1A29;}
	.st6{fill:#0E1A29;}
	.st7{fill:#264EF8;}
	.st8{fill-rule:evenodd;clip-rule:evenodd;}
	.st9{opacity:0.9;}
	.st10{fill:url(#SVGID_4_);}
	.st11{fill:url(#SVGID_5_);}
	.st12{fill:url(#SVGID_6_);}
	.st13{fill:url(#SVGID_7_);}
	.st14{fill:url(#SVGID_8_);}
	.st15{fill:url(#SVGID_9_);}
	.st16{fill:url(#SVGID_10_);}
	.st17{fill:url(#SVGID_11_);}
	.st18{fill:url(#SVGID_12_);}
	.st19{fill:url(#SVGID_13_);}
	.st20{fill:url(#SVGID_14_);}
	.st21{fill:url(#SVGID_15_);}
	.st22{fill:#101216;}
	.st23{fill-rule:evenodd;clip-rule:evenodd;fill:#77004D;}
	.st24{fill:#77004D;}
	.st25{opacity:0.9;fill:#101216;}
	.st26{fill-rule:evenodd;clip-rule:evenodd;fill:#0225BF;}
	.st27{fill-rule:evenodd;clip-rule:evenodd;fill:url(#SVGID_16_);}
	.st28{fill-rule:evenodd;clip-rule:evenodd;fill:#03B4F2;}
	.st29{fill-rule:evenodd;clip-rule:evenodd;fill:#264EF8;}
	.st30{clip-path:url(#SVGID_18_);fill-rule:evenodd;clip-rule:evenodd;fill:#FFFFFF;}
	.st31{clip-path:url(#SVGID_18_);fill-rule:evenodd;clip-rule:evenodd;}
	.st32{fill-rule:evenodd;clip-rule:evenodd;fill:url(#SVGID_19_);}
	.st33{clip-path:url(#SVGID_21_);}
	.st34{fill-rule:evenodd;clip-rule:evenodd;fill:url(#SVGID_22_);}
	.st35{opacity:0.4;}
	.st36{clip-path:url(#SVGID_24_);}
	.st37{fill:#009FE3;}
	.st38{opacity:0.5;clip-path:url(#SVGID_21_);fill:#030047;}
	.st39{clip-path:url(#SVGID_26_);}
	.st40{fill-rule:evenodd;clip-rule:evenodd;fill:url(#SVGID_27_);}
	.st41{clip-path:url(#SVGID_29_);}
	.st42{opacity:0.5;clip-path:url(#SVGID_26_);fill:#030047;}
</style>
<g>
	<g>
		<path class="st4" d="M163.3,69.7c0.6,0.7,1.7,0.9,2.5,0.4l24.8-15.9c1-0.6,1.2-1.9,0.6-2.8l-10.1-13.8c-0.7-0.9-2-1.1-2.9-0.3
			l-23,19.9c-0.8,0.7-0.9,1.9-0.2,2.7L163.3,69.7z"/>
		<path class="st4" d="M176.3,70.3c-29.5,0-53.4,23.6-53.4,52.7c0,6.8,1.3,13.3,3.7,19.3l-5-4.5l-1.1,1.3V73.8c0-1.1-0.9-2-2-2H94.1
			c-1.1,0-2,0.9-2,2v49.9L60.6,72.8c-0.4-0.6-1-0.9-1.7-0.9H33.6c-1.1,0-2,0.9-2,2v66.3c0-0.3-0.1-0.5-0.1-0.8
			c-1,5.6-1.9,11.1-2.9,16.7l-0.1,0l0,0.2c-0.1,0.4-0.1,0.8-0.2,1.1l0.2-0.2l3.1-2.5l2.1-1.7l5.5-4.5l1.3,4l16.4-19.3L75,154.6
			c2.1-0.5,4.1-0.1,5.6,1.1c0.8,0.6,1.4,1.4,1.7,2.2c0,0.1,0.1,0.2,0.1,0.3c0.2,0.5,0.3,1,0.4,1.5l18.7,11.3l-6-5.5l0-0.1l0.8-1.6
			l5-10.3l3.3,5.6l15.9-18.7l1.1-1.3l5.9,5.3l16.5,14.8l4.8-3.5l7.1,6.4l5.1-0.5l0.1,0.1l18,13.2l1.1,0.8l4.2,3.1l3.7,2.7
			c0.1,0,0.2,0.1,0.4,0.1c-0.7-0.8-1.4-1.6-2.2-2.5c0.1,0,0.2,0,0.3,0.1c-0.2-0.2-0.4-0.3-0.7-0.5c-0.9-1.1-1.9-2.2-2.8-3.3
			c26.3-3.2,46.7-25.4,46.7-52.2C229.7,93.9,205.8,70.3,176.3,70.3z M176.3,147.1c-13.5,0-24.4-10.8-24.4-24.1
			c0-13.3,10.9-24.1,24.4-24.1c13.5,0,24.4,10.8,24.4,24.1C200.8,136.3,189.8,147.1,176.3,147.1z"/>
		<path class="st4" d="M331.1,71.9h-25.6c-0.5,0-1,0.2-1.4,0.5c-9.2,9.2-21.6,43.1-21.6,43.1s-12.3-33.9-21.6-43.1
			c-0.4-0.4-0.9-0.5-1.4-0.5h-25.5c-1.1,0-2,0.9-2,2v96.9c0,1.1,0.9,2,2,2h24.4c1.1,0,2-0.9,2-2v-49l7.5,31.6c0.2,0.9,1,1.5,1.9,1.5
			h25.5c0.9,0,1.7-0.6,1.9-1.5l7.5-31.6v49c0,1.1,0.9,2,2,2h24.4c1.1,0,2-0.9,2-2V73.8C333.1,72.7,332.2,71.9,331.1,71.9z"/>
		<path class="st4" d="M399.9,73.1c-0.3-0.8-1-1.3-1.8-1.3h-24.8c-0.8,0-1.6,0.5-1.8,1.3l-35.7,96.3c-0.1,0.2-0.1,0.5-0.1,0.7v0.6
			c0,1.1,0.9,2,2,2h24.8c0.8,0,1.6-0.5,1.8-1.3l5.4-14.5h32.2l5.4,14.5c0.3,0.8,1,1.3,1.8,1.3h24.8c1.1,0,2-0.9,2-2v-0.6
			c0-0.2,0-0.5-0.1-0.7L399.9,73.1z M378.7,132.2l6.9-18.6l7,18.6H378.7z"/>
		<path class="st4" d="M478.5,71.9h-38.3c-1.1,0-2,0.9-2,2v96.9c0,1.1,0.9,2,2,2h38.3c24.3,0,44-15,44-50.4
			C522.5,86.8,502.8,71.9,478.5,71.9z M472.1,148.8h-4.6c-0.5,0-1-0.4-1-1V96.6c0-0.5,0.4-1,1-1h4.6c12,0,21.8,8,21.8,26.6
			C493.9,140.9,484.2,148.8,472.1,148.8z"/>
		<path class="st4" d="M579.3,73.1c-0.3-0.8-1-1.3-1.8-1.3h-24.8c-0.8,0-1.6,0.5-1.8,1.3l-35.7,96.3c-0.1,0.2-0.1,0.5-0.1,0.7v0.6
			c0,1.1,0.9,2,2,2h24.8c0.8,0,1.6-0.5,1.8-1.3l5.4-14.5h32.2l5.4,14.5c0.3,0.8,1,1.3,1.8,1.3h24.8c1.1,0,2-0.9,2-2v-0.6
			c0-0.2,0-0.5-0.1-0.7L579.3,73.1z M558.1,132.2l6.9-18.6l7,18.6H558.1z"/>
		<path class="st4" d="M658.8,113.8c-12-2.9-13.1-9.7-13.1-11.5c0-1.8,1.3-8.2,11.3-8c7.3,0.1,14.8,1.5,18.4,2.3
			c1.2,0.2,2.2-0.6,2.4-1.7l1.9-19.6c0.1-1.1-0.7-2-1.7-2.1c-3.9-0.4-13.3-1.3-21.9-1.3c-23.6,0-38.5,9.8-38.5,28.9
			c0,19.1,13.4,29.9,25.4,32.9c12,2.9,13.1,9.7,13.1,11.5c0,1.8-1.3,8.2-11.3,8c-7.2-0.1-14.3-1.5-17.8-2.3
			c-1.2-0.3-2.3,0.6-2.4,1.7l-1.9,19.6c-0.1,1.1,0.6,2,1.7,2.1c3.4,0.4,11.3,1.2,21.3,1.2c27.5,0,38.5-9.8,38.5-28.9
			C684.2,127.6,670.8,116.7,658.8,113.8z"/>
	</g>
	<g>
		<g>
			<path class="st4" d="M249.6,218v47.1h-13V218h-10.7v-11.2h34.4V218H249.6z"/>
			<path class="st4" d="M278.8,216.7c0-3.4,0.8-5.9,2.4-7.5c1.6-1.6,4.8-2.4,9.5-2.4h10.6c4.7,0,7.9,0.8,9.5,2.4
				c1.6,1.6,2.4,4.1,2.4,7.5v38.5c0,3.4-0.8,5.9-2.4,7.5c-1.6,1.6-4.8,2.4-9.5,2.4h-10.6c-4.7,0-7.9-0.8-9.5-2.4
				c-1.6-1.6-2.4-4.1-2.4-7.5V216.7z M291.8,252.3c0,1,0.5,1.5,1.5,1.5h5.4c1,0,1.5-0.5,1.5-1.5v-32.8c0-1-0.5-1.5-1.5-1.5h-5.4
				c-1,0-1.5,0.5-1.5,1.5V252.3z"/>
			<path class="st4" d="M358.7,206.8h13v48.4c0,3.4-0.8,5.9-2.4,7.5c-1.6,1.6-4.8,2.4-9.5,2.4h-10.6c-4.7,0-7.9-0.8-9.5-2.4
				c-1.6-1.6-2.4-4.1-2.4-7.5v-48.4h13v45.5c0,1,0.5,1.5,1.5,1.5h5.4c1,0,1.5-0.5,1.5-1.5V206.8z"/>
			<path class="st4" d="M408.8,244.8v20.3h-13v-58.3h22.1c4.7,0,7.9,0.8,9.5,2.4c1.6,1.6,2.4,4.1,2.4,7.5v14.1
				c0,3.4-1.5,5.9-4.4,7.5c-0.8,0.4-1.2,0.7-1.2,0.9c0,0.2,0.4,0.5,1.2,0.9c3.2,1.6,4.8,4.1,4.8,7.5v17.5h-13v-18.7
				c0-1-0.5-1.5-1.5-1.5H408.8z M408.8,218v15.6h6.9c1,0,1.5-0.5,1.5-1.5v-12.5c0-1-0.5-1.5-1.5-1.5H408.8z"/>
			<path class="st4" d="M455.1,234.2c-1.6-1.6-2.4-4.3-2.4-7.9v-9.6c0-3.4,0.8-5.9,2.4-7.5c1.6-1.6,4.8-2.4,9.5-2.4h9.8
				c4.7,0,7.9,0.8,9.5,2.4c1.6,1.6,2.4,4.1,2.4,7.5v9.4h-12.2v-6.6c0-1-0.5-1.5-1.5-1.5h-5.8c-1,0-1.5,0.5-1.5,1.5v5.6
				c0,1.3,2.8,3.4,8.3,6.2c5.5,2.9,9.1,5.1,10.7,6.6c1.6,1.6,2.4,4.3,2.4,7.9v9.3c0,3.4-0.8,5.9-2.4,7.5c-1.6,1.6-4.8,2.4-9.5,2.4
				h-10.6c-4.7,0-7.9-0.8-9.5-2.4c-1.6-1.6-2.4-4.1-2.4-7.5v-9.4h12.6v6.6c0,1,0.5,1.5,1.5,1.5h5.8c1,0,1.5-0.5,1.5-1.5v-5.6
				c0-1-2.7-3-8.1-5.8C460.2,238,456.7,235.8,455.1,234.2z"/>
		</g>
		<g class="st9">
			<path class="st4" d="M249.6,218v47.1h-13V218h-10.7v-11.2h34.4V218H249.6z"/>
			<path class="st4" d="M278.8,216.7c0-3.4,0.8-5.9,2.4-7.5c1.6-1.6,4.8-2.4,9.5-2.4h10.6c4.7,0,7.9,0.8,9.5,2.4
				c1.6,1.6,2.4,4.1,2.4,7.5v38.5c0,3.4-0.8,5.9-2.4,7.5c-1.6,1.6-4.8,2.4-9.5,2.4h-10.6c-4.7,0-7.9-0.8-9.5-2.4
				c-1.6-1.6-2.4-4.1-2.4-7.5V216.7z M291.8,252.3c0,1,0.5,1.5,1.5,1.5h5.4c1,0,1.5-0.5,1.5-1.5v-32.8c0-1-0.5-1.5-1.5-1.5h-5.4
				c-1,0-1.5,0.5-1.5,1.5V252.3z"/>
			<path class="st4" d="M358.7,206.8h13v48.4c0,3.4-0.8,5.9-2.4,7.5c-1.6,1.6-4.8,2.4-9.5,2.4h-10.6c-4.7,0-7.9-0.8-9.5-2.4
				c-1.6-1.6-2.4-4.1-2.4-7.5v-48.4h13v45.5c0,1,0.5,1.5,1.5,1.5h5.4c1,0,1.5-0.5,1.5-1.5V206.8z"/>
			<path class="st4" d="M408.8,244.8v20.3h-13v-58.3h22.1c4.7,0,7.9,0.8,9.5,2.4c1.6,1.6,2.4,4.1,2.4,7.5v14.1
				c0,3.4-1.5,5.9-4.4,7.5c-0.8,0.4-1.2,0.7-1.2,0.9c0,0.2,0.4,0.5,1.2,0.9c3.2,1.6,4.8,4.1,4.8,7.5v17.5h-13v-18.7
				c0-1-0.5-1.5-1.5-1.5H408.8z M408.8,218v15.6h6.9c1,0,1.5-0.5,1.5-1.5v-12.5c0-1-0.5-1.5-1.5-1.5H408.8z"/>
			<path class="st4" d="M455.1,234.2c-1.6-1.6-2.4-4.3-2.4-7.9v-9.6c0-3.4,0.8-5.9,2.4-7.5c1.6-1.6,4.8-2.4,9.5-2.4h9.8
				c4.7,0,7.9,0.8,9.5,2.4c1.6,1.6,2.4,4.1,2.4,7.5v9.4h-12.2v-6.6c0-1-0.5-1.5-1.5-1.5h-5.8c-1,0-1.5,0.5-1.5,1.5v5.6
				c0,1.3,2.8,3.4,8.3,6.2c5.5,2.9,9.1,5.1,10.7,6.6c1.6,1.6,2.4,4.3,2.4,7.9v9.3c0,3.4-0.8,5.9-2.4,7.5c-1.6,1.6-4.8,2.4-9.5,2.4
				h-10.6c-4.7,0-7.9-0.8-9.5-2.4c-1.6-1.6-2.4-4.1-2.4-7.5v-9.4h12.6v6.6c0,1,0.5,1.5,1.5,1.5h5.8c1,0,1.5-0.5,1.5-1.5v-5.6
				c0-1-2.7-3-8.1-5.8C460.2,238,456.7,235.8,455.1,234.2z"/>
		</g>
	</g>
</g>
</svg>
