<svg id="Capa_1" data-name="Capa 1" xmlns="http://www.w3.org/2000/svg" viewBox="0 0 80 86.02"><defs><style>.cls-1{fill:#fff;}</style></defs><path class="cls-1" d="M88.29,7H67.11a1.7,1.7,0,0,0-1.7,1.71V52L38,7.79A1.69,1.69,0,0,0,36.5,7H14.57A1.7,1.7,0,0,0,12.86,8.7V66.25c0-.23-.07-.46-.11-.69q-1.27,7.26-2.54,14.53l0,0v.21c-.06.33-.11.66-.17,1l.19-.15L12.86,79l1.86-1.51,4.81-3.9,1.17,3.48L34.94,60.31,50.45,78.82a5.77,5.77,0,0,1,4.9.92,5,5,0,0,1,1.51,1.91c0,.09.08.18.11.27a4.18,4.18,0,0,1,.3,1.29L73.5,93l-5.2-4.79,0-.09.09-.18L69,86.74l4.34-9,2.88,4.83L90,66.34V8.7A1.71,1.71,0,0,0,88.29,7Z" transform="translate(-10 -6.99)"/></svg>